<svg width="45" height="46" viewBox="0 0 45 46" fill="none" xmlns="http://www.w3.org/2000/svg">
<g clip-path="url(#clip0_85_18)">
<path fill-rule="evenodd" clip-rule="evenodd" d="M25.6603 35.4113C29.8339 33.7439 35.0304 32.6763 41.25 32.2083C41.25 32.0818 41.25 24.8983 41.25 10.6577H41.25C41.25 10.1399 40.8303 9.72021 40.3125 9.72021C40.3046 9.72021 40.2967 9.72032 40.2888 9.72052C34.9842 9.85481 29.6796 11.1008 24.375 13.4583C24.375 13.5418 24.375 20.5692 24.375 34.5406H24.375C24.375 35.0584 24.7947 35.4782 25.3125 35.4782C25.4317 35.4782 25.5497 35.4555 25.6603 35.4113Z" fill="#6A6E87"/>
<path opacity="0.3" fill-rule="evenodd" clip-rule="evenodd" d="M19.3397 35.4113C15.1662 33.7439 9.96959 32.6763 3.75 32.2083C3.75 32.0818 3.75 24.8983 3.75 10.6577H3.75004C3.75004 10.1399 4.16976 9.72021 4.6875 9.72021C4.69541 9.72021 4.70332 9.72032 4.71123 9.72052C10.0158 9.85481 15.3204 11.1008 20.625 13.4583C20.625 13.5418 20.625 20.5692 20.625 34.5406H20.625C20.625 35.0584 20.2053 35.4782 19.6875 35.4782C19.5684 35.4782 19.4503 35.4555 19.3397 35.4113Z" fill="#6A6E87"/>
</g>
<defs>
<clipPath id="clip0_85_18">
<rect width="45" height="45" fill="white" transform="translate(0 0.333374)"/>
</clipPath>
</defs>
</svg>
