<svg width="45" height="45" viewBox="0 0 45 45" fill="none" xmlns="http://www.w3.org/2000/svg">
<g clip-path="url(#clip0_83_46)">
<path opacity="0.3" d="M25.3125 5.625C25.3125 4.58947 24.473 3.75 23.4375 3.75C22.402 3.75 21.5625 4.58947 21.5625 5.625V9.375C21.5625 10.4105 22.402 11.25 23.4375 11.25C24.473 11.25 25.3125 10.4105 25.3125 9.375V5.625Z" fill="#6A6E87"/>
<path opacity="0.3" d="M25.3125 31.875C25.3125 30.8395 24.473 30 23.4375 30C22.402 30 21.5625 30.8395 21.5625 31.875V37.5C21.5625 38.5355 22.402 39.375 23.4375 39.375C24.473 39.375 25.3125 38.5355 25.3125 37.5V31.875Z" fill="#6A6E87"/>
<path fill-rule="evenodd" clip-rule="evenodd" d="M29.0502 15.0825C28.5277 14.4175 27.8448 13.8891 27.0017 13.4972C26.1586 13.1053 25.3452 12.9094 24.5614 12.9094C24.1577 12.9094 23.748 12.945 23.3323 13.0162C22.9167 13.0875 22.5427 13.2241 22.2102 13.4259C21.8777 13.6278 21.5986 13.8891 21.373 14.2097C21.1473 14.5303 21.0345 14.94 21.0345 15.4387C21.0345 15.8662 21.1236 16.2225 21.3017 16.5075C21.4798 16.7925 21.7411 17.0419 22.0855 17.2556C22.4298 17.4694 22.8395 17.6653 23.3145 17.8434C23.7895 18.0216 24.3239 18.2056 24.9177 18.3956C25.7727 18.6806 26.6633 18.9953 27.5895 19.3397C28.5158 19.6841 29.3589 20.1412 30.1189 20.7112C30.8789 21.2812 31.5083 21.9878 32.007 22.8309C32.5058 23.6741 32.7552 24.725 32.7552 25.9837C32.7552 27.4325 32.488 28.6853 31.9536 29.7422C31.4192 30.7991 30.7008 31.6719 29.7983 32.3606C28.8958 33.0494 27.8627 33.56 26.6989 33.8925C25.5352 34.225 24.3358 34.3912 23.1008 34.3912C21.2958 34.3912 19.5502 34.0766 17.8639 33.4472C16.1776 32.8178 14.7764 31.9213 13.6602 30.7575L17.6502 26.6962C18.2677 27.4562 19.0811 28.0916 20.0905 28.6022C21.0999 29.1128 22.1033 29.3681 23.1008 29.3681C23.552 29.3681 23.9914 29.3206 24.4189 29.2256C24.8464 29.1306 25.2205 28.9762 25.5411 28.7625C25.8617 28.5487 26.117 28.2637 26.307 27.9075C26.497 27.5512 26.592 27.1237 26.592 26.625C26.592 26.15 26.4733 25.7462 26.2358 25.4137C25.9983 25.0812 25.6598 24.7784 25.2205 24.5053C24.7811 24.2322 24.2348 23.9828 23.5817 23.7572C22.9286 23.5316 22.1864 23.2881 21.3552 23.0269C20.5477 22.7656 19.758 22.4569 18.9861 22.1006C18.2142 21.7444 17.5255 21.2872 16.9198 20.7291C16.3142 20.1709 15.8273 19.4941 15.4592 18.6984C15.0911 17.9028 14.907 16.935 14.907 15.795C14.907 14.3937 15.192 13.1944 15.762 12.1969C16.332 11.1994 17.0802 10.38 18.0064 9.73875C18.9327 9.09749 19.9777 8.62844 21.1414 8.33156C22.3052 8.03468 23.4808 7.88625 24.6683 7.88625C26.0933 7.88625 27.548 8.14749 29.0323 8.67C30.5167 9.1925 31.817 9.96437 32.9333 10.9856L29.0502 15.0825Z" fill="#6A6E87"/>
</g>
<defs>
<clipPath id="clip0_83_46">
<rect width="45" height="45" fill="white"/>
</clipPath>
</defs>
</svg>
