<svg width="21" height="19" viewBox="0 0 21 19" fill="none" xmlns="http://www.w3.org/2000/svg">
<path opacity="0.3" fill-rule="evenodd" clip-rule="evenodd" d="M11.2617 13.2917L14.4716 8.95842H12.0642V4.62508L7.24935 11.1251H9.65676V13.2917H3.99935C3.40104 13.2917 2.91602 12.8067 2.91602 12.2084V1.37508C2.91602 0.776773 3.40104 0.291748 3.99935 0.291748H16.9993C17.5977 0.291748 18.0827 0.776773 18.0827 1.37508V12.2084C18.0827 12.8067 17.5977 13.2917 16.9993 13.2917H11.2617Z" fill="#E7E9F7"/>
<path fill-rule="evenodd" clip-rule="evenodd" d="M8.12131 9.94889L7.25 11.1252H9.65741V15.4585L14.4722 8.95849H14.25L19.3912 5.24541C19.6337 5.07026 19.9723 5.12487 20.1475 5.36739C20.2141 5.4597 20.25 5.57066 20.25 5.68453V16.5418C20.25 17.7384 19.28 18.7085 18.0833 18.7085H2.91667C1.72005 18.7085 0.75 17.7384 0.75 16.5418V5.68453C0.75 5.38537 0.992512 5.14286 1.29167 5.14286C1.40553 5.14286 1.5165 5.17874 1.60881 5.24541L8.12131 9.94889Z" fill="#E7E9F7"/>
</svg>
