<svg width="45" height="46" viewBox="0 0 45 46" fill="none" xmlns="http://www.w3.org/2000/svg">
<path opacity="0.3" d="M28.125 41.9167C33.3027 41.9167 37.5 37.7194 37.5 32.5417C37.5 27.364 33.3027 23.1667 28.125 23.1667C22.9473 23.1667 18.75 27.364 18.75 32.5417C18.75 37.7194 22.9473 41.9167 28.125 41.9167Z" fill="#6A6E87"/>
<path opacity="0.3" d="M16.875 41.9167C22.0527 41.9167 26.25 37.7194 26.25 32.5417C26.25 27.364 22.0527 23.1667 16.875 23.1667C11.6973 23.1667 7.5 27.364 7.5 32.5417C7.5 37.7194 11.6973 41.9167 16.875 41.9167Z" fill="#6A6E87"/>
<path opacity="0.3" d="M13.125 30.6667C18.3027 30.6667 22.5 26.4694 22.5 21.2917C22.5 16.114 18.3027 11.9167 13.125 11.9167C7.94733 11.9167 3.75 16.114 3.75 21.2917C3.75 26.4694 7.94733 30.6667 13.125 30.6667Z" fill="#6A6E87"/>
<path opacity="0.3" d="M31.875 30.6667C37.0527 30.6667 41.25 26.4694 41.25 21.2917C41.25 16.114 37.0527 11.9167 31.875 11.9167C26.6973 11.9167 22.5 16.114 22.5 21.2917C22.5 26.4694 26.6973 30.6667 31.875 30.6667Z" fill="#6A6E87"/>
<path opacity="0.3" d="M22.5 23.1667C27.6777 23.1667 31.875 18.9694 31.875 13.7917C31.875 8.61402 27.6777 4.41669 22.5 4.41669C17.3223 4.41669 13.125 8.61402 13.125 13.7917C13.125 18.9694 17.3223 23.1667 22.5 23.1667Z" fill="#6A6E87"/>
</svg>
