<svg width="45" height="45" viewBox="0 0 45 45" fill="none" xmlns="http://www.w3.org/2000/svg">
<path fill-rule="evenodd" clip-rule="evenodd" d="M45 22.4999C45 34.9264 34.9265 45 22.5 45C10.0735 45 0 34.9264 0 22.4999C0 10.0736 10.0735 0 22.5 0C34.9265 0 45 10.0736 45 22.4999Z" fill="#15151D" fill-opacity="0.6"/>
<path fill-rule="evenodd" clip-rule="evenodd" d="M27.007 28.9289V23.5432C27.007 22.5217 26.7285 21.4307 25.4981 21.4307C24.8017 21.4307 24.1981 21.9182 23.966 22.5682C23.8731 22.8235 23.8731 23.0789 23.8731 23.3342V28.9289H20.9017C20.9017 25.6789 20.9249 22.4521 20.832 19.2021H23.4088L23.5481 20.5717H23.5945C24.2213 19.5503 25.382 18.9932 26.566 18.9932C29.0267 18.9932 30.0017 20.9664 30.0017 23.195V28.9289H27.007ZM16.1426 28.9287V19.2019H19.114V28.9287H16.1426ZM17.6508 14.9995C18.533 14.9995 19.2062 15.6031 19.2062 16.5084C19.2062 17.437 18.5098 18.0174 17.6044 18.0174C16.7223 18.0174 16.0723 17.3906 16.0723 16.5084C16.0723 15.6031 16.7687 14.9995 17.6508 14.9995Z" fill="#E7E9F7"/>
</svg>
