<svg width="54" height="39" viewBox="0 0 54 39" fill="none" xmlns="http://www.w3.org/2000/svg">
<path d="M12.0687 38.0996C10.5975 38.7072 8.97333 38.8374 7.42451 38.4719C3.37288 37.5 1.33568 33.1907 0.932398 29.4382C0.764943 24.9433 0.574698 19.4903 0.376527 14.9934C0.262578 12.5036 0.0644058 7.64732 0 5.15165C0.182318 2.7086 2.05504 0.380698 4.58966 0.0531048C6.07594 -0.173232 7.6207 0.341981 8.73739 1.31682C13.9949 5.4574 21.1112 11.0394 26.3667 15.1035C31.104 18.7984 37.8607 24.0379 42.709 27.4439C43.2242 27.8132 43.7583 28.1864 44.2736 28.5458C45.3011 29.34 46.5852 29.465 47.6781 28.7503C47.9251 28.5974 48.1611 28.4276 48.3846 28.242C49.0069 27.7119 49.425 26.9664 49.8115 26.1573C51.3562 22.7285 52.3391 16.67 51.1987 13.0536C50.9014 12.186 50.081 11.3789 49.2645 11.1675C48.6175 11.0275 48.2271 11.3422 47.6494 11.6688L47.7802 11.5894C37.4277 19.1985 22.225 30.4905 12.0687 38.0996ZM9.71933 33.5232C20.2551 26.8999 36.0019 16.7187 46.5168 9.77072C46.9409 9.5285 47.4909 9.25153 48.0259 9.12546C49.9878 8.63704 51.8982 10.0715 52.7236 11.7363C53.0436 12.4034 53.2061 13.138 53.3092 13.8398C53.8403 18.0618 52.6741 24.3437 50.3545 27.9244C49.859 28.6957 49.1208 29.3479 48.3281 29.8353C47.0826 30.6464 45.4229 30.7288 44.1309 29.9644C43.3848 29.5177 42.6733 28.9717 41.9658 28.4862C39.2221 26.5405 36.4051 24.4221 33.6357 22.5101C25.2223 16.7068 15.1562 9.70421 6.81711 3.80355C5.93425 3.06994 4.74423 3.09377 4.03081 4.02691C3.74318 4.42274 3.58186 4.89651 3.56808 5.38593L3.57304 5.11194C3.82273 7.76446 5.2575 26.5256 5.42495 28.7811C5.77076 30.7933 6.92115 34.092 9.39829 33.5798L9.60241 33.5312L9.78968 33.4686C9.77444 33.4714 9.75994 33.4773 9.74713 33.486C9.73432 33.4947 9.7235 33.5061 9.71537 33.5193L9.71933 33.5232Z" fill="url(#paint0_linear_27_938)"/>
<defs>
<linearGradient id="paint0_linear_27_938" x1="0" y1="19.3376" x2="53.436" y2="19.3414" gradientUnits="userSpaceOnUse">
<stop stop-color="#B548BD"/>
<stop offset="1" stop-color="#01F3FD"/>
</linearGradient>
</defs>
</svg>
