<svg width="1154" height="846" viewBox="0 0 1154 846" fill="none" xmlns="http://www.w3.org/2000/svg">
<g style="mix-blend-mode:hard-light" opacity="0.2" filter="url(#filter0_f_27_576)">
<path d="M272.925 812.07C242.356 824.669 208.606 827.369 176.423 819.79C92.234 799.636 49.9026 710.273 41.5229 632.458C38.0433 539.246 34.0902 426.167 29.9723 332.913C27.6046 281.284 23.4867 180.578 22.1484 128.825C25.9368 78.1633 64.8504 29.8895 117.517 23.0962C148.401 18.4026 180.5 29.0866 203.704 49.3019C312.95 135.166 460.821 250.92 570.026 335.198C668.463 411.819 808.861 520.471 909.603 591.101C920.31 598.759 931.407 606.499 942.114 613.951C963.465 630.42 990.148 633.014 1012.86 618.192C1017.99 615.022 1022.89 611.5 1027.54 607.652C1040.47 596.659 1049.16 581.199 1057.19 564.422C1089.29 493.318 1109.71 367.683 1086.01 292.689C1079.83 274.697 1062.79 257.96 1045.82 253.575C1032.38 250.673 1024.26 257.199 1012.26 263.971L1014.98 262.324C799.863 420.115 483.964 654.279 272.925 812.07ZM224.108 717.169C443.032 579.82 770.235 368.692 988.728 224.611C997.54 219.588 1008.97 213.845 1020.08 211.23C1060.85 201.102 1100.55 230.849 1117.7 265.371C1124.35 279.205 1127.73 294.438 1129.87 308.993C1140.9 396.544 1116.67 526.812 1068.47 601.065C1058.17 617.06 1042.84 630.585 1026.36 640.693C1000.48 657.511 965.997 659.22 939.149 643.369C923.645 634.105 908.862 622.783 894.161 612.716C837.15 572.368 778.615 528.438 721.068 488.789C546.246 368.445 337.08 223.232 163.802 100.87C145.457 85.6566 120.729 86.1507 105.905 105.501C99.9284 113.71 96.5764 123.534 96.29 133.683L96.393 128.002C101.581 183.007 131.395 572.059 134.874 618.83C142.06 660.558 165.964 728.965 217.437 718.342L221.678 717.334L225.569 716.037C225.253 716.093 224.951 716.216 224.685 716.397C224.419 716.578 224.194 716.813 224.025 717.087L224.108 717.169Z" fill="black"/>
</g>
<g style="mix-blend-mode:overlay" filter="url(#filter1_f_27_576)">
<path d="M272.925 812.07C242.356 824.669 208.606 827.369 176.423 819.79C92.234 799.636 49.9026 710.273 41.5229 632.458C38.0433 539.246 34.0902 426.167 29.9723 332.913C27.6046 281.284 23.4867 180.578 22.1484 128.825C25.9368 78.1633 64.8504 29.8895 117.517 23.0962C148.401 18.4026 180.5 29.0866 203.704 49.3019C312.95 135.166 460.821 250.92 570.026 335.198C668.463 411.819 808.861 520.471 909.603 591.101C920.31 598.759 931.407 606.499 942.114 613.951C963.465 630.42 990.148 633.014 1012.86 618.192C1017.99 615.022 1022.89 611.5 1027.54 607.652C1040.47 596.659 1049.16 581.199 1057.19 564.422C1089.29 493.318 1109.71 367.683 1086.01 292.689C1079.83 274.697 1062.79 257.96 1045.82 253.575C1032.38 250.673 1024.26 257.199 1012.26 263.971L1014.98 262.324C799.863 420.115 483.964 654.279 272.925 812.07ZM224.108 717.169C443.032 579.82 770.235 368.692 988.728 224.611C997.54 219.588 1008.97 213.845 1020.08 211.23C1060.85 201.102 1100.55 230.849 1117.7 265.371C1124.35 279.205 1127.73 294.438 1129.87 308.993C1140.9 396.544 1116.67 526.812 1068.47 601.065C1058.17 617.06 1042.84 630.585 1026.36 640.693C1000.48 657.511 965.997 659.22 939.149 643.369C923.645 634.105 908.862 622.783 894.161 612.716C837.15 572.368 778.615 528.438 721.068 488.789C546.246 368.445 337.08 223.232 163.802 100.87C145.457 85.6566 120.729 86.1507 105.905 105.501C99.9284 113.71 96.5764 123.534 96.29 133.683L96.393 128.002C101.581 183.007 131.395 572.059 134.874 618.83C142.06 660.558 165.964 728.965 217.437 718.342L221.678 717.334L225.569 716.037C225.253 716.093 224.951 716.216 224.685 716.397C224.419 716.578 224.194 716.813 224.025 717.087L224.108 717.169Z" fill="black"/>
</g>
<defs>
<filter id="filter0_f_27_576" x="7.59922" y="7.45078" width="1139.45" height="831.099" filterUnits="userSpaceOnUse" color-interpolation-filters="sRGB">
<feFlood flood-opacity="0" result="BackgroundImageFix"/>
<feBlend mode="normal" in="SourceGraphic" in2="BackgroundImageFix" result="shape"/>
<feGaussianBlur stdDeviation="7.27461" result="effect1_foregroundBlur_27_576"/>
</filter>
<filter id="filter1_f_27_576" x="0.821133" y="0.672695" width="1153.01" height="844.655" filterUnits="userSpaceOnUse" color-interpolation-filters="sRGB">
<feFlood flood-opacity="0" result="BackgroundImageFix"/>
<feBlend mode="normal" in="SourceGraphic" in2="BackgroundImageFix" result="shape"/>
<feGaussianBlur stdDeviation="10.6637" result="effect1_foregroundBlur_27_576"/>
</filter>
</defs>
</svg>
