<svg width="45" height="45" viewBox="0 0 45 45" fill="none" xmlns="http://www.w3.org/2000/svg">
<path fill-rule="evenodd" clip-rule="evenodd" d="M22.5 45C34.9264 45 45 34.9264 45 22.5C45 10.0736 34.9264 0 22.5 0C10.0736 0 0 10.0736 0 22.5C0 34.9264 10.0736 45 22.5 45Z" fill="#15151D" fill-opacity="0.6"/>
<path fill-rule="evenodd" clip-rule="evenodd" d="M26.0771 19.722C26.0771 19.6143 26.0771 19.722 26.0771 19.722C25.5287 19.1835 24.8706 18.9682 24.2126 19.0758C24.8706 18.9682 25.1997 18.7528 25.3093 18.6451C25.3093 18.5374 25.3093 18.4297 25.1997 18.4297C24.8706 18.4297 24.5416 18.5374 24.3223 18.6451C24.6513 18.4297 24.761 18.322 24.761 18.2144C24.4319 18.2144 24.1029 18.4297 23.6642 18.7528C23.7739 18.5374 23.8836 18.4297 23.7739 18.322C23.5546 18.4297 23.4449 18.5374 23.3352 18.7528C23.0062 19.0758 22.7868 19.2912 22.6772 19.6143C22.2385 20.3681 21.9094 21.0142 21.6901 21.768H21.5804C21.3611 21.4449 21.0321 21.1219 20.5934 20.9065C20.1547 20.5834 19.6063 20.3681 18.9483 20.045C18.2902 19.722 17.6322 19.3989 16.8645 19.1835C16.8645 19.9373 17.1935 20.5834 17.9612 21.0142C17.7418 21.0142 17.4128 21.0142 17.1935 21.1219C17.1935 21.768 17.7418 22.3064 18.7289 22.5218C18.3999 22.5218 18.0709 22.6295 17.7418 22.8448C18.0709 23.491 18.6192 23.7063 19.4966 23.7063C19.387 23.814 19.1676 23.9217 19.1676 23.9217C19.0579 24.0294 18.9483 24.2447 19.0579 24.4601C19.2773 24.7832 19.4966 24.8909 20.045 24.8909C19.2773 25.6447 18.2902 26.0754 17.1935 25.9677C16.5354 25.9677 15.7677 25.6447 15 24.9985C15.7677 26.0754 16.8645 26.9369 18.1805 27.4753C19.716 27.9061 21.2514 28.0137 22.6772 27.583C24.1029 27.1523 25.419 26.2908 26.4061 25.1062C26.8448 24.4601 27.1738 23.814 27.2835 23.1679C28.0512 23.1679 28.5995 22.9525 28.9286 22.5218C28.7092 22.6295 28.1609 22.6295 27.3931 22.4141C28.1609 22.3064 28.7092 22.091 28.8189 21.6603C28.2705 21.8757 27.7222 21.8757 27.1738 21.6603C27.0641 20.9065 26.7351 20.2604 26.0771 19.722Z" fill="#E7E9F7"/>
</svg>
